<svg xmlns="http://www.w3.org/2000/svg" height="511pt" version="1.1" viewBox="0 0 511.99785 511" width="511pt">
  <g id="surface1">
    <path d="M 451.523438 301.988281 C 517.40625 231.203125 512.058594 119.253906 511.792969 114.421875 C 511.371094 106.789062 505.273438 100.695312 497.640625 100.273438 C 495.355469 100.144531 462.992188 98.566406 422.496094 106.808594 C 414.507812 65.785156 400.511719 36.3125 399.847656 34.925781 C 396.539062 28.035156 388.578125 24.738281 381.359375 27.269531 C 379.910156 27.777344 349.191406 38.714844 314.550781 62.0625 C 291.828125 27.753906 267.902344 6.023438 266.003906 4.324219 C 260.3125 -0.777344 251.691406 -0.777344 245.996094 4.324219 C 244.097656 6.023438 220.171875 27.753906 197.449219 62.066406 C 162.808594 38.71875 132.085938 27.777344 130.640625 27.269531 C 123.425781 24.742188 115.460938 28.035156 112.152344 34.925781 C 111.488281 36.3125 97.488281 65.785156 89.503906 106.8125 C 49.007812 98.570312 16.640625 100.148438 14.355469 100.273438 C 6.722656 100.695312 0.628906 106.789062 0.207031 114.425781 C -0.0625 119.253906 -5.40625 231.203125 60.476562 301.988281 C 26.910156 320.570312 4.933594 344.847656 3.847656 346.058594 C -1.25 351.753906 -1.25 360.375 3.847656 366.070312 C 6.234375 368.734375 63.09375 431.308594 135.507812 431.308594 C 154.324219 431.308594 172.082031 427.078125 188.117188 420.777344 C 204.785156 471.269531 244.140625 506.964844 245.992188 508.628906 C 248.839844 511.175781 252.421875 512.453125 256 512.453125 C 259.578125 512.453125 263.15625 511.175781 266.003906 508.628906 C 267.859375 506.96875 307.207031 471.269531 323.878906 420.78125 C 339.914062 427.078125 357.671875 431.308594 376.488281 431.308594 C 448.902344 431.308594 505.765625 368.734375 508.152344 366.070312 C 513.25 360.375 513.25 351.753906 508.152344 346.058594 C 507.0625 344.84375 485.082031 320.566406 451.523438 301.988281 Z M 426.003906 285.257812 C 386.988281 324.273438 328.875 336.230469 291.917969 339.777344 C 318.582031 307.9375 356.140625 251.433594 356.140625 185.78125 C 356.140625 178.433594 355.65625 171.207031 354.785156 164.109375 C 400.308594 135.980469 456.191406 130.9375 481.871094 130.214844 C 481.019531 161.476562 473.800781 237.460938 426.003906 285.257812 Z M 378.238281 60.953125 C 382.761719 72.777344 389.125 91.757812 393.378906 114.242188 C 378.4375 118.886719 363.128906 125.027344 348.363281 133.132812 C 343.660156 116.949219 337.175781 101.773438 329.886719 87.914062 C 348.78125 75.035156 366.6875 66.109375 378.238281 60.953125 Z M 256.015625 36.648438 C 274.726562 56.410156 313.953125 103.511719 323.835938 159.929688 C 323.839844 159.9375 323.839844 159.945312 323.84375 159.957031 C 325.316406 168.375 326.140625 177.003906 326.140625 185.78125 C 326.140625 253.140625 277.507812 312.113281 256 334.894531 C 234.492188 312.113281 185.855469 253.140625 185.855469 185.78125 C 185.855469 118.398438 234.527344 59.40625 256.015625 36.648438 Z M 133.757812 60.953125 C 145.308594 66.113281 163.21875 75.039062 182.109375 87.917969 C 174.820312 101.773438 168.335938 116.949219 163.632812 133.132812 C 148.867188 125.027344 133.558594 118.886719 118.617188 114.242188 C 122.871094 91.757812 129.238281 72.773438 133.757812 60.953125 Z M 157.210938 164.109375 C 156.339844 171.207031 155.859375 178.433594 155.859375 185.78125 C 155.859375 251.472656 193.457031 308 220.121094 339.832031 C 183.214844 336.332031 125.144531 324.410156 85.988281 285.257812 C 38.339844 237.609375 31.046875 161.480469 30.148438 130.191406 C 55.808594 130.886719 111.574219 135.886719 157.210938 164.109375 Z M 36.433594 356.042969 C 46.539062 346.886719 63.5 333.320312 84.417969 323.398438 C 128.070312 355.917969 181.992188 366.53125 217.828125 369.835938 C 210.402344 375.339844 201.699219 381.050781 192.046875 386.074219 C 191.507812 386.308594 190.988281 386.582031 190.488281 386.875 C 174.242188 395.113281 155.414062 401.3125 135.507812 401.3125 C 92.398438 401.3125 54.054688 371.960938 36.433594 356.042969 Z M 255.976562 476.042969 C 243.9375 462.761719 224.269531 437.667969 215.363281 407.425781 C 232.957031 397.082031 246.984375 385.476562 255.996094 377.183594 C 265.007812 385.476562 279.035156 397.082031 296.625 407.421875 C 287.730469 437.550781 268.015625 462.722656 255.976562 476.042969 Z M 376.488281 401.3125 C 344.152344 401.3125 314.503906 384.800781 294.261719 369.824219 C 330.097656 366.511719 383.964844 355.886719 427.574219 323.402344 C 448.414062 333.296875 465.429688 346.910156 475.570312 356.078125 C 458 372.007812 419.789062 401.3125 376.488281 401.3125 Z M 376.488281 401.3125 "
      style=" stroke:none;fill-rule:nonzero;fill:#6400c1;fill-opacity:1;" />
  </g>
</svg>