<?xml version="1.0" encoding="iso-8859-1"?>
<!-- Generator: Adobe Illustrator 19.0.0, SVG Export Plug-In . SVG Version: 6.00 Build 0)  -->
<svg height="20" width="20" viewBox="0 0 512 512" xmlns="http://www.w3.org/2000/svg">
<g>
	<g>
		<circle cx="257.013" cy="256.003" r="38.999"/>
	</g>
</g>
<g>
	<g>
		<path d="M257.011,142.002c-62.858,0-113.997,51.139-113.997,113.997s51.139,113.997,113.997,113.997
			s113.997-51.139,113.997-113.997S319.869,142.002,257.011,142.002z M257.011,329.997c-40.803,0-73.998-33.195-73.998-73.998
			c0-40.803,33.195-73.998,73.998-73.998s73.998,33.195,73.998,73.998C331.009,296.802,297.814,329.997,257.011,329.997z"/>
	</g>
</g>
<g>
	<g>
		<path d="M499.046,212.345c-10.618-16.306-40.581-58.167-89.352-94.633c-49.438-36.965-100.997-55.709-153.246-55.709
			c-52.175,0-103.779,18.693-153.379,55.558c-48.988,36.41-79.191,78.219-89.903,94.504c-17.555,26.689-17.555,61.178,0,87.867
			c10.712,16.286,40.915,58.095,89.903,94.505c49.6,36.865,101.203,55.558,153.379,55.558c80.325,0,144.917-44.788,184.957-82.359
			c8.055-7.558,8.458-20.214,0.9-28.269c-7.559-8.056-20.214-8.458-28.269-0.9c-34.777,32.632-90.347,71.53-157.59,71.53
			c-97.104,0-177.606-83.001-209.865-132.045c-8.772-13.336-8.772-30.568,0-43.904c32.259-49.044,112.761-132.044,209.865-132.044
			c97.101,0,177.112,83.08,209.081,132.17c8.635,13.259,8.635,30.393,0,43.652c-6.027,9.256-3.41,21.645,5.846,27.673
			c9.255,6.027,21.646,3.411,27.673-5.846C516.315,273.134,516.315,238.863,499.046,212.345z"/>
	</g>
</g>
</svg>
